<svg xmlns="http://www.w3.org/2000/svg" xmlns:xlink="http://www.w3.org/1999/xlink" id="OBJECTS" viewBox="0 0 604.83 479.1"><defs fill="#000000000"><style>.cls-1,.cls-16{fill:none;}.cls-2{clip-path:url(#clip-path);}.cls-3{fill:#a6a7ab;}.cls-4{fill:#17151d;stroke:#b2b2b2;}.cls-16,.cls-4,.cls-9{stroke-miterlimit:10;}.cls-5{fill:#acd1fd;}.cls-6{fill:#83898c;}.cls-7,.cls-9{fill:#535b5f;}.cls-8{fill:#030408;}.cls-9{stroke:#878787;}.cls-10{fill:#71abdb;opacity:0.79;}.cls-11{fill:#706f6f;}.cls-12{fill:#936037;}.cls-13{fill:#9d9d9c;}.cls-14{fill:#878787;}.cls-15{fill:#f53030;}.cls-16{stroke:#000000;stroke-width:5px;}.cls-17{fill:#edb388;}.cls-18{fill:#f9d293;}.cls-19{fill:#e30613;}.cls-20{fill:#f75262;}.cls-21{fill:#f39200;}.cls-22{font-size:30.57px;font-family:Baloo;}.cls-22,.cls-25,.cls-26{fill:#fff;}.cls-23{letter-spacing:0em;}.cls-24{letter-spacing:-0.03em;}.cls-25{font-size:23px;font-family:Arial-BoldMT, Arial;font-weight:700;}</style><clipPath id="clip-path" transform="translate(52.01 -16.95)" fill="#000000000"><rect class="cls-1" x="1.69" width="498.31" height="500" fill="#000000000"/></clipPath></defs><g class="cls-2"><path class="cls-3" d="M78.87,372.77V383.7s.41,3.94,7.88,3.94H411.38a11.69,11.69,0,0,0,1.32-.08c1.16-.14,3.6-.46,5.58-.92a3.65,3.65,0,0,0,2.85-3.56V372.93l-342-.43A.27.27,0,0,0,78.87,372.77Z" transform="translate(52.01 -16.95)" fill="#000000000"/><path class="cls-4" d="M154.19,113.69H449.83a10.61,10.61,0,0,1,10.61,10.61V323a3.58,3.58,0,0,1-3.58,3.58H147.16a3.58,3.58,0,0,1-3.58-3.58V124.3a10.61,10.61,0,0,1,10.61-10.61Z" fill="#000000000"/><rect class="cls-5" x="155.44" y="127.34" width="293.14" height="186.7" rx="3.33" fill="#000000000"/><path class="cls-6" d="M409.33,347.1a11.52,11.52,0,0,1-.6-1.8,2.78,2.78,0,0,0-2.66-2H93.94a2.78,2.78,0,0,0-2.66,2,12.63,12.63,0,0,1-.59,1.8L78.87,372.71a2.77,2.77,0,0,0,2.77,2.76H418.37a2.77,2.77,0,0,0,2.75-2.47,1,1,0,0,0-.11-.55Z" transform="translate(52.01 -16.95)" fill="#000000000"/><rect class="cls-3" x="277.82" y="358.04" width="48.39" height="1.87" fill="#000000000"/><polygon class="cls-7" points="356.62 346.22 317.36 346.22 286.67 346.22 247.4 346.22 244.59 356.73 286.67 356.73 317.36 356.73 360.59 356.73 356.62 346.22" fill="#000000000"/><polygon class="cls-8" points="441.6 329.35 305.91 329.35 301.21 329.35 164.55 329.35 159.37 344.56 301.21 344.56 305.91 344.56 447.75 344.56 441.6 329.35" fill="#000000000"/><line class="cls-9" x1="162.9" y1="333.47" x2="443.55" y2="333.47" fill="#000000000"/><line class="cls-9" x1="161.28" y1="338.96" x2="445.49" y2="338.96" fill="#000000000"/><path class="cls-10" d="M395.16,241.61h-2.55A1.41,1.41,0,0,0,391.2,243v9.56a1.41,1.41,0,0,1-1.41,1.41h-7.5a1.41,1.41,0,0,1-1.41-1.41v-2.8a1.41,1.41,0,0,0-1.41-1.41H362a1.41,1.41,0,0,1-1.41-1.41V215.08a1.38,1.38,0,0,0-.28-.83l-9.13-12.39a1.41,1.41,0,0,0-2.14-.15L338,213.11a1.42,1.42,0,0,0-.4,1v38.49a1.41,1.41,0,0,1-1.41,1.41h-9.28a1.41,1.41,0,0,1-1.41-1.41V236.81A1.41,1.41,0,0,0,324,235.4h-2.12a1.41,1.41,0,0,1-1.41-1.41V216.77a1.41,1.41,0,0,0-1.41-1.41h0a1.41,1.41,0,0,1-1.41-1.41v-3.52a1.41,1.41,0,0,0-1.41-1.41h-4.21a1.41,1.41,0,0,0-1.41,1.41V214a1.41,1.41,0,0,1-1.41,1.41h0a1.41,1.41,0,0,0-1.41,1.41V234a1.41,1.41,0,0,1-1.41,1.41h-1a1.41,1.41,0,0,0-1.41,1.41v3.39a1.41,1.41,0,0,1-1.41,1.41H298a1.42,1.42,0,0,1-1.41-1.41V208a1.41,1.41,0,0,0-1.41-1.41h-17.3a1.41,1.41,0,0,0-1.41,1.41v21.47a1.43,1.43,0,0,1-.44,1l-14.82,14a1.39,1.39,0,0,0-.44,1v15.75a1.41,1.41,0,0,1-1.41,1.41h-9.75a1.41,1.41,0,0,1-1.41-1.41V213.31a1.41,1.41,0,0,0-1.41-1.41H230.08a1.41,1.41,0,0,0-1.41,1.41V240.2a1.41,1.41,0,0,1-1.41,1.41h-7.64a1.41,1.41,0,0,0-1.41,1.41v9.56A1.41,1.41,0,0,1,216.8,254h-7.5a1.41,1.41,0,0,1-1.41-1.41v-2.8a1.41,1.41,0,0,0-1.41-1.41H189A1.41,1.41,0,0,1,187.6,247V215.08a1.38,1.38,0,0,0-.28-.83l-9.12-12.39a1.42,1.42,0,0,0-2.15-.15L165,213.11a1.38,1.38,0,0,0-.4,1v38.49a1.41,1.41,0,0,1-1.41,1.41h-9.28a1.41,1.41,0,0,1-1.41-1.41V236.81a1.42,1.42,0,0,0-1.42-1.41h-2.12a1.41,1.41,0,0,1-1.41-1.41V216.77a1.41,1.41,0,0,0-1.41-1.41h0A1.41,1.41,0,0,1,144.7,214v-3.52a1.41,1.41,0,0,0-1.41-1.41h-4.2a1.41,1.41,0,0,0-1.41,1.41V214a1.42,1.42,0,0,1-1.41,1.41h0a1.41,1.41,0,0,0-1.41,1.41V234a1.42,1.42,0,0,1-1.42,1.41h-1a1.41,1.41,0,0,0-1.41,1.41v3.39a1.42,1.42,0,0,1-1.41,1.41H125a1.41,1.41,0,0,1-1.41-1.41V208a1.41,1.41,0,0,0-1.41-1.41H104.84a1.41,1.41,0,0,0-1.41,1.41V329.58a1.41,1.41,0,0,0,1.41,1.41H395.16a1.41,1.41,0,0,0,1.41-1.41V243A1.41,1.41,0,0,0,395.16,241.61Z" transform="translate(52.01 -16.95)" fill="#000000000"/><path d="M122.7,222.06l1.7-1.65L61.22,155.15a1.18,1.18,0,0,0-1.88.23L22,220.65,24,221.82l36.57-63.9Z" transform="translate(52.01 -16.95)" fill="#000000000"/><rect x="111" y="90.74" width="2.76" height="33.99" fill="#000000000"/><rect class="cls-11" x="109.55" y="121.8" width="5.65" height="6.98" rx="0.42" fill="#000000000"/><path class="cls-11" d="M58,139.17h4.81v6.14H58v-6.14m0-.84a.85.85,0,0,0-.84.84v6.14a.85.85,0,0,0,.84.85h4.81a.85.85,0,0,0,.85-.85v-6.14a.85.85,0,0,0-.85-.84Z" transform="translate(52.01 -16.95)" fill="#000000000"/><path class="cls-11" d="M60.37,160.57a5.77,5.77,0,0,0,5.76-5.76,1.42,1.42,0,0,0-2.83,0,2.94,2.94,0,1,1-2.93-2.93,1.41,1.41,0,0,0,1.41-1.41v-7.1a1.42,1.42,0,0,0-2.83,0v5.86a5.76,5.76,0,0,0,1.42,11.34Z" transform="translate(52.01 -16.95)" fill="#000000000"/><rect class="cls-12" x="16.74" y="219.66" width="111.83" height="4.1" transform="translate(197.31 426.46) rotate(180)" fill="#000000000"/><rect x="4.09" y="187.42" width="75.2" height="2.37" transform="translate(-90.69 114.15) rotate(-60.22)" fill="#000000000"/><path d="M73.63,91.29l119-30.81L209.32,83l2.22-1.64L194.31,58.09a1.36,1.36,0,0,0-1.45-.52L72.93,88.62Z" transform="translate(52.01 -16.95)" fill="#000000000"/><path d="M210.44,120.48h0a8.56,8.56,0,0,0,8.56-8.56V89.55A8.56,8.56,0,0,0,210.44,81h0a8.55,8.55,0,0,0-8.55,8.56v22.37A8.55,8.55,0,0,0,210.44,120.48Z" transform="translate(52.01 -16.95)" fill="#000000000"/><rect class="cls-11" x="198.32" y="97.59" width="24.23" height="1.86" transform="translate(43.98 160.7) rotate(-45)" fill="#000000000"/><path class="cls-11" d="M200.47,88.56H220.4v19.93H200.47Zm17.13,2.79H203.26v14.34H217.6Z" transform="translate(52.01 -16.95)" fill="#000000000"/><rect class="cls-11" x="209.5" y="86.41" width="1.86" height="24.23" transform="translate(43.97 160.66) rotate(-44.99)" fill="#000000000"/><rect class="cls-11" x="164.05" y="97.59" width="24.23" height="1.86" transform="translate(33.94 136.47) rotate(-45)" fill="#000000000"/><path class="cls-11" d="M166.2,88.56h19.93v19.93H166.2Zm17.13,2.79H169v14.34h14.34Z" transform="translate(52.01 -16.95)" fill="#000000000"/><rect class="cls-11" x="175.23" y="86.41" width="1.86" height="24.23" transform="translate(33.94 136.44) rotate(-44.99)" fill="#000000000"/><rect class="cls-11" x="146.92" y="97.59" width="24.23" height="1.86" transform="translate(28.93 124.36) rotate(-45)" fill="#000000000"/><path class="cls-11" d="M149.07,88.56H169v19.93H149.07Zm17.13,2.79H151.86v14.34H166.2Z" transform="translate(52.01 -16.95)" fill="#000000000"/><rect class="cls-11" x="158.1" y="86.41" width="1.86" height="24.23" transform="translate(28.92 124.32) rotate(-44.99)" fill="#000000000"/><rect class="cls-11" x="129.78" y="97.59" width="24.23" height="1.86" transform="translate(23.91 112.24) rotate(-45)" fill="#000000000"/><path class="cls-11" d="M131.93,88.56h19.93v19.93H131.93Zm17.14,2.79H134.73v14.34h14.34Z" transform="translate(52.01 -16.95)" fill="#000000000"/><rect class="cls-11" x="140.97" y="86.41" width="1.86" height="24.23" transform="translate(23.9 112.21) rotate(-44.99)" fill="#000000000"/><rect class="cls-11" x="112.65" y="97.59" width="24.23" height="1.86" transform="translate(18.89 100.13) rotate(-45)" fill="#000000000"/><path class="cls-11" d="M114.8,88.56h19.93v19.93H114.8Zm17.13,2.79H117.59v14.34h14.34Z" transform="translate(52.01 -16.95)" fill="#000000000"/><rect class="cls-11" x="123.83" y="86.41" width="1.86" height="24.23" transform="translate(18.89 100.12) rotate(-45)" fill="#000000000"/><rect class="cls-11" x="95.51" y="97.59" width="24.23" height="1.86" transform="translate(13.87 88.01) rotate(-45)" fill="#000000000"/><path class="cls-11" d="M97.67,88.56h19.92v19.93H97.67Zm17.13,2.79H100.46v14.34H114.8Z" transform="translate(52.01 -16.95)" fill="#000000000"/><rect class="cls-11" x="106.7" y="86.41" width="1.86" height="24.23" transform="translate(13.87 88.01) rotate(-45)" fill="#000000000"/><rect class="cls-11" x="78.3" y="97.59" width="24.23" height="1.86" transform="translate(8.83 75.84) rotate(-45)" fill="#000000000"/><path class="cls-11" d="M80.45,88.56h19.93v19.93H80.45Zm17.13,2.79H83.24v14.34H97.58Z" transform="translate(52.01 -16.95)" fill="#000000000"/><rect class="cls-11" x="89.48" y="86.41" width="1.86" height="24.23" transform="translate(8.83 75.83) rotate(-45)" fill="#000000000"/><rect class="cls-11" x="61.16" y="97.59" width="24.23" height="1.86" transform="translate(3.81 63.72) rotate(-45)" fill="#000000000"/><path class="cls-11" d="M64.27,88.56h19v19.93H35.81Zm16.18,2.79H65.15L44.67,105.69H80.45Z" transform="translate(52.01 -16.95)" fill="#000000000"/><rect class="cls-11" x="72.35" y="86.41" width="1.86" height="24.23" transform="translate(3.81 63.72) rotate(-45)" fill="#000000000"/><rect class="cls-11" x="203.83" y="292.01" width="1.86" height="24.23" transform="translate(-103.05 216.87) rotate(-44.99)" fill="#000000000"/><path class="cls-11" d="M194.8,294.16h19.93v19.93H194.8ZM211.94,297H197.6V311.3h14.34Z" transform="translate(52.01 -16.95)" fill="#000000000"/><rect class="cls-11" x="192.65" y="303.19" width="24.23" height="1.86" transform="translate(-103.06 216.92) rotate(-45)" fill="#000000000"/><rect class="cls-11" x="203.83" y="309.16" width="1.86" height="24.23" transform="translate(-115.18 221.9) rotate(-44.99)" fill="#000000000"/><path class="cls-11" d="M194.8,311.31h19.93v19.93H194.8Zm17.14,2.79H197.6v14.34h14.34Z" transform="translate(52.01 -16.95)" fill="#000000000"/><rect class="cls-11" x="192.65" y="320.34" width="24.23" height="1.86" transform="translate(-115.19 221.94) rotate(-45)" fill="#000000000"/><rect class="cls-11" x="203.83" y="274.88" width="1.86" height="24.23" transform="translate(-90.94 211.86) rotate(-44.99)" fill="#000000000"/><path class="cls-11" d="M194.8,277h19.93V297H194.8Zm17.14,2.79H197.6v14.34h14.34Z" transform="translate(52.01 -16.95)" fill="#000000000"/><rect class="cls-11" x="192.65" y="286.06" width="24.23" height="1.86" transform="translate(-90.95 211.9) rotate(-45)" fill="#000000000"/><rect class="cls-11" x="203.83" y="257.74" width="1.86" height="24.23" transform="translate(-78.82 206.83) rotate(-44.99)" fill="#000000000"/><path class="cls-11" d="M194.8,259.89h19.93v19.93H194.8Zm17.14,2.8H197.6V277h14.34Z" transform="translate(52.01 -16.95)" fill="#000000000"/><rect class="cls-11" x="192.65" y="268.93" width="24.23" height="1.86" transform="translate(-78.83 206.88) rotate(-45)" fill="#000000000"/><rect class="cls-11" x="203.83" y="240.61" width="1.86" height="24.23" transform="translate(-66.71 201.81) rotate(-44.99)" fill="#000000000"/><path class="cls-11" d="M194.8,242.76h19.93v19.93H194.8Zm17.14,2.79H197.6v14.34h14.34Z" transform="translate(52.01 -16.95)" fill="#000000000"/><rect class="cls-11" x="192.65" y="251.79" width="24.23" height="1.86" transform="translate(-66.72 201.86) rotate(-45)" fill="#000000000"/><rect class="cls-11" x="203.83" y="223.48" width="1.86" height="24.23" transform="translate(-54.6 196.79) rotate(-44.99)" fill="#000000000"/><path class="cls-11" d="M194.8,225.63h19.93v19.92H194.8Zm17.14,2.79H197.6v14.34h14.34Z" transform="translate(52.01 -16.95)" fill="#000000000"/><rect class="cls-11" x="192.65" y="234.66" width="24.23" height="1.86" transform="translate(-54.6 196.84) rotate(-45)" fill="#000000000"/><rect class="cls-11" x="203.83" y="206.34" width="1.86" height="24.23" transform="translate(-42.48 191.78) rotate(-44.99)" fill="#000000000"/><path class="cls-11" d="M194.8,208.49h19.93v19.93H194.8Zm17.14,2.8H197.6v14.34h14.34Z" transform="translate(52.01 -16.95)" fill="#000000000"/><rect class="cls-11" x="192.65" y="217.53" width="24.23" height="1.86" transform="translate(-42.49 191.82) rotate(-45)" fill="#000000000"/><rect class="cls-11" x="203.83" y="189.21" width="1.86" height="24.23" transform="translate(-30.37 186.76) rotate(-44.99)" fill="#000000000"/><path class="cls-11" d="M194.8,191.36h19.93v19.93H194.8Zm17.14,2.79H197.6v14.34h14.34Z" transform="translate(52.01 -16.95)" fill="#000000000"/><rect class="cls-11" x="192.65" y="200.39" width="24.23" height="1.86" transform="translate(-30.37 186.81) rotate(-45)" fill="#000000000"/><rect class="cls-11" x="203.83" y="172.07" width="1.86" height="24.23" transform="translate(-18.26 181.75) rotate(-44.99)" fill="#000000000"/><path class="cls-11" d="M194.8,174.23h19.93v19.92H194.8ZM211.94,177H197.6v14.34h14.34Z" transform="translate(52.01 -16.95)" fill="#000000000"/><rect class="cls-11" x="192.65" y="183.26" width="24.23" height="1.86" transform="translate(-18.25 181.79) rotate(-45)" fill="#000000000"/><rect class="cls-11" x="203.83" y="154.94" width="1.86" height="24.23" transform="translate(-6.14 176.73) rotate(-44.99)" fill="#000000000"/><path class="cls-11" d="M194.8,157.09h19.93V177H194.8Zm17.14,2.8H197.6v14.34h14.34Z" transform="translate(52.01 -16.95)" fill="#000000000"/><rect class="cls-11" x="192.65" y="166.12" width="24.23" height="1.86" transform="translate(-6.14 176.77) rotate(-45)" fill="#000000000"/><rect class="cls-11" x="203.83" y="137.81" width="1.86" height="24.23" transform="translate(5.97 171.72) rotate(-44.99)" fill="#000000000"/><path class="cls-11" d="M194.8,140h19.93v19.93H194.8Zm17.14,2.79H197.6v14.34h14.34Z" transform="translate(52.01 -16.95)" fill="#000000000"/><rect class="cls-11" x="192.65" y="148.99" width="24.23" height="1.86" transform="translate(5.98 171.75) rotate(-45)" fill="#000000000"/><rect class="cls-11" x="203.83" y="120.67" width="1.86" height="24.23" transform="translate(18.08 166.71) rotate(-44.99)" fill="#000000000"/><path class="cls-11" d="M194.8,122.83h19.93v19.92H194.8Zm17.14,2.79H197.6V140h14.34Z" transform="translate(52.01 -16.95)" fill="#000000000"/><rect class="cls-11" x="192.65" y="131.86" width="24.23" height="1.86" transform="translate(18.09 166.73) rotate(-45)" fill="#000000000"/><rect class="cls-11" x="204" y="103.54" width="1.86" height="24.23" transform="translate(30.24 161.79) rotate(-44.99)" fill="#000000000"/><path class="cls-11" d="M195,105.69h19.93v19.93H195Zm17.14,2.8H197.76v14.34H212.1Z" transform="translate(52.01 -16.95)" fill="#000000000"/><rect class="cls-11" x="192.81" y="114.72" width="24.23" height="1.86" transform="translate(30.25 161.83) rotate(-45)" fill="#000000000"/><rect class="cls-11" x="192.39" y="86.41" width="1.86" height="24.23" transform="translate(38.96 148.57) rotate(-44.99)" fill="#000000000"/><path class="cls-11" d="M183.36,88.56h19.92v19.93H183.36Zm17.13,2.79H186.15v14.34h14.34Z" transform="translate(52.01 -16.95)" fill="#000000000"/><rect class="cls-11" x="181.2" y="97.59" width="24.23" height="1.86" transform="translate(38.97 148.6) rotate(-45)" fill="#000000000"/><rect class="cls-11" x="194.56" y="69.98" width="1.86" height="22.02" transform="translate(41.32 111.65) rotate(-35.51)" fill="#000000000"/><path class="cls-11" d="M183.64,90.8a1.41,1.41,0,0,1-.24-1.21l8.45-31.05a1.41,1.41,0,0,1,1.35-1h0a1.4,1.4,0,0,1,1.35,1l8.68,31.05a1.39,1.39,0,0,1-1.34,1.77H184.75A1.4,1.4,0,0,1,183.64,90.8Zm9.58-26.64-6.64,24.4H200Z" transform="translate(52.01 -16.95)" fill="#000000000"/><rect class="cls-11" x="180.05" y="80.06" width="21.79" height="1.86" transform="translate(67.73 175.01) rotate(-55.33)" fill="#000000000"/><rect class="cls-11" x="115.37" y="73" width="2.79" height="17.74" fill="#000000000"/><rect class="cls-13" x="378.51" y="199.04" width="10.59" height="115" fill="#000000000"/><rect class="cls-14" x="383.81" y="199.04" width="5.3" height="115" fill="#000000000"/><rect class="cls-15" x="255.35" y="42.02" width="152.9" height="152.9" rx="15.93" transform="translate(65.42 252.36) rotate(-45)" fill="#000000000"/><rect class="cls-16" x="266.31" y="52.98" width="130.97" height="130.97" rx="20.47" transform="translate(232.96 -216.87) rotate(45)" fill="#000000000"/><text x="52.01" y="-16.95" fill="#000000000"/><text x="52.01" y="-16.95" fill="#000000000"/><path class="cls-17" d="M131.61,283.56h0a5.44,5.44,0,0,1-5.4-5.44l.09-20.74a5.44,5.44,0,0,1,5.44-5.4h0a5.44,5.44,0,0,1,5.4,5.44l-.09,20.74A5.44,5.44,0,0,1,131.61,283.56Z" transform="translate(52.01 -16.95)" fill="#000000000"/><rect class="cls-17" x="155.22" y="249.57" width="30.72" height="30.45" rx="10.03" fill="#000000000"/><rect class="cls-17" x="159.73" y="275.4" width="20.06" height="38.64" fill="#000000000"/><rect class="cls-12" x="77.26" y="245.81" width="92.6" height="16.04" rx="6.97" transform="translate(-106.25 220.38) rotate(-60.69)" fill="#000000000"/><rect class="cls-11" x="119.71" y="197.94" width="54.72" height="28" rx="5.45" transform="translate(223.6 451.79) rotate(-150.7)" fill="#000000000"/><path class="cls-18" d="M126.53,267.28h0a4.67,4.67,0,0,1-6.26-2.09l-8-16a4.69,4.69,0,0,1,2.09-6.26h0a4.68,4.68,0,0,1,6.26,2.09l8,16A4.69,4.69,0,0,1,126.53,267.28Z" transform="translate(52.01 -16.95)" fill="#000000000"/><path class="cls-18" d="M123.64,282.21h0a4.67,4.67,0,0,1-6.26-2.09l-11-22.32a4.68,4.68,0,0,1,2.09-6.26h0a4.68,4.68,0,0,1,6.26,2.09l11,22.32A4.68,4.68,0,0,1,123.64,282.21Z" transform="translate(52.01 -16.95)" fill="#000000000"/><path class="cls-18" d="M116,287.77h0a4.14,4.14,0,0,1-5.7-1.85l-10-19.35a4.43,4.43,0,0,1,2.34-5.76h0a4.43,4.43,0,0,1,6,1.59L118.38,282A4.42,4.42,0,0,1,116,287.77Z" transform="translate(52.01 -16.95)" fill="#000000000"/><path class="cls-18" d="M106.64,289h0a4.68,4.68,0,0,1-6.26-2.09l-4.78-9.55a4.69,4.69,0,0,1,2.09-6.26h0a4.68,4.68,0,0,1,6.26,2.08l4.78,9.56A4.67,4.67,0,0,1,106.64,289Z" transform="translate(52.01 -16.95)" fill="#000000000"/><path class="cls-17" d="M367,281.89h0a5.64,5.64,0,0,1,1.56-7.81l17.93-11.94a5.64,5.64,0,0,1,7.81,1.56h0a5.64,5.64,0,0,1-1.56,7.81l-17.93,11.95A5.65,5.65,0,0,1,367,281.89Z" transform="translate(52.01 -16.95)" fill="#000000000"/><rect class="cls-17" x="403.06" y="246.65" width="31.92" height="31.64" rx="15.82" fill="#000000000"/><rect class="cls-11" x="360.26" y="236.45" width="13.49" height="64.63" transform="translate(436.08 -202.76) rotate(55.93)" fill="#000000000"/><path class="cls-11" d="M425.64,240.25h0a3.55,3.55,0,0,0-4.92-.94l-18.07,12.22a3.06,3.06,0,0,1-4.24-.82l-3-4.37a3,3,0,0,1,.82-4.24l18.07-12.22a3.54,3.54,0,0,0,.95-4.91h0a3.53,3.53,0,0,0-3.18-1.55l-18.69,1.33a3,3,0,0,0-2.53,1.71l-8.32,17.1a3.06,3.06,0,0,0,.22,3l10.65,15.75a3,3,0,0,0,2.75,1.34l19-1.35a3,3,0,0,0,2.53-1.71l8.2-16.85A3.57,3.57,0,0,0,425.64,240.25Z" transform="translate(52.01 -16.95)" fill="#000000000"/><path class="cls-11" d="M306.5,298.53h0a3.53,3.53,0,0,0,4.91,1l18.76-12.68a2.22,2.22,0,0,1,3.09.59l3.88,5.75a2.23,2.23,0,0,1-.59,3.09l-18.76,12.68a3.53,3.53,0,0,0-1,4.91h0a3.53,3.53,0,0,0,3.18,1.55L339.18,314a2.25,2.25,0,0,0,1.85-1.25l8.73-18a2.21,2.21,0,0,0-.16-2.22L338.42,276a2.25,2.25,0,0,0-2-1l-19.92,1.42a2.23,2.23,0,0,0-1.84,1.25L306.25,295A3.52,3.52,0,0,0,306.5,298.53Z" transform="translate(52.01 -16.95)" fill="#000000000"/><rect class="cls-17" x="407.75" y="273.5" width="20.84" height="40.55" fill="#000000000"/><path class="cls-18" d="M375.59,267.58h0a4.52,4.52,0,0,1-5.43-3.33l-4-16.75a4.52,4.52,0,0,1,3.33-5.43h0a4.52,4.52,0,0,1,5.43,3.33l4,16.75A4.52,4.52,0,0,1,375.59,267.58Z" transform="translate(52.01 -16.95)" fill="#000000000"/><path class="cls-18" d="M369.61,281h0a4.52,4.52,0,0,1-5.43-3.33l-5.45-23.38a4.52,4.52,0,0,1,3.33-5.43h0a4.51,4.51,0,0,1,5.42,3.33l5.46,23.38A4.53,4.53,0,0,1,369.61,281Z" transform="translate(52.01 -16.95)" fill="#000000000"/><path class="cls-18" d="M362.18,288.44h0c-2.41.57-4.5-1.12-5.08-3.53l-5.8-23.18a4.52,4.52,0,0,1,3.33-5.43h0a4.52,4.52,0,0,1,5.43,3.33L365.51,283A4.52,4.52,0,0,1,362.18,288.44Z" transform="translate(52.01 -16.95)" fill="#000000000"/><path class="cls-18" d="M353.77,290.33h0a4.51,4.51,0,0,1-5.42-3.33l-4-16.75a4.52,4.52,0,0,1,3.33-5.42h0a4.52,4.52,0,0,1,5.43,3.33l4,16.75A4.5,4.5,0,0,1,353.77,290.33Z" transform="translate(52.01 -16.95)" fill="#000000000"/><path class="cls-17" d="M277.85,282.46h0a5.65,5.65,0,0,0,2.14-7.67L269.42,256a5.65,5.65,0,0,0-7.67-2.14h0a5.65,5.65,0,0,0-2.14,7.67l10.57,18.77A5.65,5.65,0,0,0,277.85,282.46Z" transform="translate(52.01 -16.95)" fill="#000000000"/><rect class="cls-17" x="270.4" y="263.61" width="31.92" height="31.64" rx="15.82" transform="translate(624.72 541.9) rotate(180)" fill="#000000000"/><rect class="cls-17" x="276.78" y="290.45" width="20.84" height="40.63" transform="translate(626.42 604.57) rotate(180)" fill="#000000000"/><rect class="cls-11" x="241.24" y="198.55" width="3.58" height="67.06" transform="translate(-39.07 251.03) rotate(-49.81)" fill="#000000000"/><path class="cls-11" d="M226.65,218.24h0a4.23,4.23,0,0,1-5.94.5l-10.26-8.66a1.09,1.09,0,0,1-.13-1.53l4-4.79a1.1,1.1,0,0,1,1.53-.13l10.26,8.67A4.23,4.23,0,0,1,226.65,218.24Z" transform="translate(52.01 -16.95)" fill="#000000000"/><path class="cls-19" d="M308.43,287.59h0a9.85,9.85,0,0,1-13.82,1.17l-27.44-23.18A9.84,9.84,0,0,1,266,251.76h0a9.82,9.82,0,0,1,13.81-1.16l27.44,23.18A9.83,9.83,0,0,1,308.43,287.59Z" transform="translate(52.01 -16.95)" fill="#000000000"/><path class="cls-20" d="M300.85,286.44h0a2.44,2.44,0,0,1-3.42.28l-28.66-24.21a2.43,2.43,0,0,1-.29-3.42h0a2.43,2.43,0,0,1,3.42-.28L300.56,283A2.43,2.43,0,0,1,300.85,286.44Z" transform="translate(52.01 -16.95)" fill="#000000000"/><path class="cls-20" d="M306.29,280h0a2.43,2.43,0,0,1-3.42.29l-28.66-24.21a2.43,2.43,0,0,1-.29-3.42h0a2.43,2.43,0,0,1,3.42-.29L306,276.58A2.42,2.42,0,0,1,306.29,280Z" transform="translate(52.01 -16.95)" fill="#000000000"/><path class="cls-18" d="M279.09,269.34h0a4.85,4.85,0,0,0,5.49-4.1l2.66-18.36a4.85,4.85,0,0,0-4.1-5.49h0a4.86,4.86,0,0,0-5.49,4.1L275,263.85A4.86,4.86,0,0,0,279.09,269.34Z" transform="translate(52.01 -16.95)" fill="#000000000"/><path class="cls-18" d="M286.81,283.13h0a4.88,4.88,0,0,0,5.5-4.11l3.56-25.6a4.87,4.87,0,0,0-4.11-5.5h0a4.86,4.86,0,0,0-5.49,4.1l-3.56,25.61A4.87,4.87,0,0,0,286.81,283.13Z" transform="translate(52.01 -16.95)" fill="#000000000"/><path class="cls-18" d="M296.12,286.13h0a4.32,4.32,0,0,0,5-3.69l3.5-22.33c.34-2.32-1.55-4.53-4.19-4.92h0c-2.63-.38-5.07,1.21-5.4,3.52l-3.11,22.51C291.6,283.54,293.48,285.75,296.12,286.13Z" transform="translate(52.01 -16.95)" fill="#000000000"/><path class="cls-18" d="M305.78,284.24h0a4.86,4.86,0,0,0,5.49-4.1l1.59-11a4.85,4.85,0,0,0-4.1-5.49h0a4.85,4.85,0,0,0-5.49,4.1l-1.6,11A4.88,4.88,0,0,0,305.78,284.24Z" transform="translate(52.01 -16.95)" fill="#000000000"/><path class="cls-17" d="M207.22,286.63h0a5.65,5.65,0,0,0,.33-8L193,262.82a5.64,5.64,0,0,0-7.95-.33h0a5.65,5.65,0,0,0-.33,8l14.59,15.85A5.66,5.66,0,0,0,207.22,286.63Z" transform="translate(52.01 -16.95)" fill="#000000000"/><path class="cls-17" d="M208.21,262.49H219a10.58,10.58,0,0,1,10.58,10.58v12a9,9,0,0,1-9,9H208.21a10.58,10.58,0,0,1-10.58-10.58V273.07A10.58,10.58,0,0,1,208.21,262.49Z" transform="translate(479.2 539.67) rotate(180)" fill="#000000000"/><rect class="cls-17" x="204.02" y="289.33" width="20.84" height="41.66" transform="translate(480.89 603.37) rotate(180)" fill="#000000000"/><path class="cls-11" d="M200.86,268.8,196.49,274c-15.69-13.13-16.39-19.61-16-21.79l6.69,1.31a2.18,2.18,0,0,0,0-.49C187.26,253.11,187.79,257.87,200.86,268.8Z" transform="translate(52.01 -16.95)" fill="#000000000"/><path class="cls-11" d="M214.37,252.66,210,257.88c-13.08-10.93-17.85-10.61-17.9-10.61a2.32,2.32,0,0,0,.47-.13l-2.47-6.35C192.17,240,198.67,239.53,214.37,252.66Z" transform="translate(52.01 -16.95)" fill="#000000000"/><path class="cls-21" d="M223.08,291.82h0a4.72,4.72,0,0,1-6.63.59l-20.74-17.34a4.74,4.74,0,0,1-.59-6.63h0a4.74,4.74,0,0,1,6.63-.59l20.74,17.35A4.72,4.72,0,0,1,223.08,291.82Z" transform="translate(52.01 -16.95)" fill="#000000000"/><path class="cls-21" d="M236.58,275.68h0a4.71,4.71,0,0,1-6.62.59l-20.74-17.35a4.71,4.71,0,0,1-.59-6.62h0a4.71,4.71,0,0,1,6.62-.59L236,269.06A4.71,4.71,0,0,1,236.58,275.68Z" transform="translate(52.01 -16.95)" fill="#000000000"/><path class="cls-11" d="M183.15,253.57h0a3,3,0,0,1-4.22.37l-11.53-9.63a3,3,0,0,1-.37-4.23h0a3,3,0,0,1,4.22-.38l11.52,9.64A3,3,0,0,1,183.15,253.57Z" transform="translate(52.01 -16.95)" fill="#000000000"/><path class="cls-11" d="M175,243.93h0a3,3,0,0,1-4.23.38l-3.46-2.89a3,3,0,0,1-.38-4.23h0a3,3,0,0,1,4.23-.38l3.46,2.9A3,3,0,0,1,175,243.93Z" transform="translate(52.01 -16.95)" fill="#000000000"/><path class="cls-11" d="M180.39,237.52h0a3,3,0,0,1-4.23.38L172.7,235a3,3,0,0,1-.37-4.23h0a3,3,0,0,1,4.22-.37L180,233.3A3,3,0,0,1,180.39,237.52Z" transform="translate(52.01 -16.95)" fill="#000000000"/><path class="cls-11" d="M191.25,243.89h0a3,3,0,0,1-4.23.37l-11.52-9.63a3,3,0,0,1-.38-4.23h0a3,3,0,0,1,4.23-.38l11.52,9.64A3,3,0,0,1,191.25,243.89Z" transform="translate(52.01 -16.95)" fill="#000000000"/><path class="cls-11" d="M192.32,251.76,191,253.29a8.28,8.28,0,0,1-11.64,1h0a8.29,8.29,0,0,1-1-11.64l1.29-1.53a8.28,8.28,0,0,1,11.64-1h0A8.29,8.29,0,0,1,192.32,251.76Z" transform="translate(52.01 -16.95)" fill="#000000000"/><path class="cls-18" d="M204.57,267h0a4.87,4.87,0,0,0,5.5-4.1l2.66-18.36a4.87,4.87,0,0,0-4.1-5.5h0a4.88,4.88,0,0,0-5.5,4.11l-2.66,18.35A4.87,4.87,0,0,0,204.57,267Z" transform="translate(52.01 -16.95)" fill="#000000000"/><path class="cls-18" d="M212.3,280.76h0a4.85,4.85,0,0,0,5.49-4.1l3.56-25.61a4.85,4.85,0,0,0-4.1-5.49h0a4.85,4.85,0,0,0-5.49,4.1l-3.56,25.61A4.85,4.85,0,0,0,212.3,280.76Z" transform="translate(52.01 -16.95)" fill="#000000000"/><path class="cls-18" d="M221.61,283.77h0a4.32,4.32,0,0,0,5-3.69l3.5-22.34c.34-2.32-1.55-4.53-4.19-4.91h0c-2.64-.38-5.07,1.2-5.41,3.52l-3.11,22.5C217.09,281.17,219,283.38,221.61,283.77Z" transform="translate(52.01 -16.95)" fill="#000000000"/><path class="cls-18" d="M231.26,281.87h0a4.86,4.86,0,0,0,5.5-4.1l1.59-11a4.87,4.87,0,0,0-4.1-5.5h0a4.86,4.86,0,0,0-5.49,4.1l-1.6,11A4.86,4.86,0,0,0,231.26,281.87Z" transform="translate(52.01 -16.95)" fill="#000000000"/><rect class="cls-15" x="-47.01" y="420.77" width="572.17" height="35.05" transform="matrix(0.99, 0.14, -0.14, 0.99, 116.3, -46.32)" fill="#000000000"/><polygon points="25.85 401.22 5.39 398.3 25.44 365.75 45.9 368.67 25.85 401.22" fill="#000000000"/><polygon points="66.69 407.05 46.23 404.13 66.28 371.58 86.74 374.5 66.69 407.05" fill="#000000000"/><polygon points="107.53 412.87 87.07 409.95 107.11 377.4 127.57 380.32 107.53 412.87" fill="#000000000"/><polygon points="148.36 418.7 127.9 415.78 147.95 383.23 168.41 386.15 148.36 418.7" fill="#000000000"/><polygon points="189.2 424.52 168.74 421.6 188.79 389.05 209.25 391.97 189.2 424.52" fill="#000000000"/><polygon points="230.04 430.35 209.58 427.43 229.63 394.88 250.08 397.8 230.04 430.35" fill="#000000000"/><polygon points="270.87 436.17 250.41 433.25 270.46 400.7 290.92 403.62 270.87 436.17" fill="#000000000"/><polygon points="311.71 442 291.25 439.08 311.3 406.53 331.76 409.45 311.71 442" fill="#000000000"/><polygon points="352.55 447.82 332.09 444.9 352.13 412.35 372.59 415.27 352.55 447.82" fill="#000000000"/><polygon points="393.38 453.65 372.92 450.73 392.97 418.18 413.43 421.1 393.38 453.65" fill="#000000000"/><polygon points="434.22 459.47 413.76 456.55 433.81 424 454.27 426.92 434.22 459.47" fill="#000000000"/><polygon points="475.06 465.3 454.6 462.38 474.64 429.83 495.1 432.75 475.06 465.3" fill="#000000000"/><polygon points="515.89 471.12 495.43 468.2 515.48 435.65 535.94 438.57 515.89 471.12" fill="#000000000"/><polygon points="556.73 476.95 536.27 474.03 556.32 441.48 576.78 444.4 556.73 476.95" fill="#000000000"/><rect class="cls-15" x="-51.58" y="387.87" width="572.17" height="35.05" transform="translate(17.45 5.12) rotate(-5.02)" fill="#000000000"/><text class="cls-22" transform="translate(16.35 422.27) rotate(-5.02)" fill="#000000000"><tspan class="cls-23" fill="#000000000">C</tspan><tspan class="cls-24" x="17.85" y="0" fill="#000000000">A</tspan><tspan x="35.7" y="0" fill="#000000000">UTION</tspan></text><path d="M104.52,417a4.83,4.83,0,1,1-5.23-4.39A4.83,4.83,0,0,1,104.52,417Z" transform="translate(52.01 -16.95)" fill="#000000000"/><text class="cls-22" transform="translate(165.78 409.15) rotate(-5.02)" fill="#000000000"><tspan class="cls-23" fill="#000000000">C</tspan><tspan class="cls-24" x="17.85" y="0" fill="#000000000">A</tspan><tspan x="35.7" y="0" fill="#000000000">UTION</tspan></text><circle cx="301.15" cy="387.33" r="4.83" fill="#000000000"/><text class="cls-22" transform="translate(315.2 396.03) rotate(-5.02)" fill="#000000000"><tspan class="cls-23" fill="#000000000">C</tspan><tspan class="cls-24" x="17.85" y="0" fill="#000000000">A</tspan><tspan x="35.7" y="0" fill="#000000000">UTION</tspan></text><circle cx="398.56" cy="391.16" r="4.83" transform="translate(-104.98 430.98) rotate(-50.3)" fill="#000000000"/><text class="cls-22" transform="translate(464.63 382.91) rotate(-5.02)" fill="#000000000"><tspan class="cls-23" fill="#000000000">C</tspan><tspan class="cls-24" x="17.85" y="0" fill="#000000000">A</tspan><tspan x="35.7" y="0" fill="#000000000">UTION</tspan></text><circle cx="547.98" cy="378.04" r="4.83" transform="translate(-40.91 541.21) rotate(-50.3)" fill="#000000000"/></g><text class="cls-25" transform="translate(345.82 86.58)" fill="#000000000">Under <tspan x="-35.13" y="27.6" fill="#000000000">Construction</tspan></text><path class="cls-26" transform="translate(52.01 -16.95)" fill="#000000000"/></svg>