<svg xmlns="http://www.w3.org/2000/svg" width="48" height="48" viewBox="0 0 256 256"><g fill="none" stroke-miterlimit="10" font-family="none" font-weight="none" font-size="none" text-anchor="none" style="mix-blend-mode:normal"><path d="M229.333 32a5.2 5.2 0 0 1-.853 2.88l-73.813 116v28.907C148.053 187.307 144 197.173 144 208s4.053 20.693 10.667 28.213V240c0 1.92-1.067 3.733-2.774 4.693q-1.2.64-2.56.64c-.96 0-1.973-.266-2.826-.8l-42.667-26.666c-1.547-.96-2.507-2.72-2.507-4.534V150.88l-73.813-116a5.17 5.17 0 0 1-.853-2.88z" fill="#e84a40"/><path d="M229.333 37.333H26.667a5.333 5.333 0 1 1 0-10.666h202.666a5.333 5.333 0 1 1 0 10.666M186.667 256c-26.47 0-48-21.53-48-48s21.53-48 48-48 48 21.53 48 48-21.531 48-48 48m0-85.333c-20.582 0-37.334 16.752-37.334 37.333s16.752 37.333 37.334 37.333S224 228.581 224 208s-16.752-37.333-37.333-37.333" fill="#9a9a9a"/><path d="M200 226.667a5.33 5.33 0 0 1-3.77-1.563l-26.667-26.667a5.333 5.333 0 1 1 7.54-7.541l26.668 26.667a5.328 5.328 0 0 1-3.771 9.104" fill="#9a9a9a"/><path d="M173.333 226.667a5.328 5.328 0 0 1-3.77-9.104l26.666-26.667a5.333 5.333 0 1 1 7.542 7.541l-26.667 26.667a5.33 5.33 0 0 1-3.77 1.563" fill="#9a9a9a"/></g></svg>