<svg width="240" height="240" viewBox="0 0 24 24" xmlns="http://www.w3.org/2000/svg"><path d="M8.5 14.5h7.657m-7.657-4h7.657M8.5 6.5h7.657M5.5 14.5h0m0-4h0m0-4h0m3.628 13.697H3.444a2.22 2.22 0 0 1-2.229-2.153V3.152A2.153 2.153 0 0 1 3.367.997h15.48A2.153 2.153 0 0 1 21 3.152v8.738" fill="none" stroke="#fff" stroke-linecap="round" stroke-width="2"/><path fill="#fff" d="M16.5 23.499a1.46 1.46 0 0 1-1.094-.484l-2.963-2.969A1.48 1.48 0 0 1 12 18.985a1.5 1.5 0 0 1 .462-1.078 1.56 1.56 0 0 1 2.113.037l1.925 1.931 4.943-4.959a1.543 1.543 0 0 1 2.132.02 1.46 1.46 0 0 1 .425 1.04 1.5 1.5 0 0 1-.45 1.068l-5.993 6.012a1.44 1.44 0 0 1-1.057.443"/></svg>